<?xml version="1.0" encoding="UTF-8" standalone="no"?>
<!DOCTYPE svg PUBLIC "-//W3C//DTD SVG 1.1//EN"
 "http://www.w3.org/Graphics/SVG/1.1/DTD/svg11.dtd">
<!-- Generated by graphviz version 3.0.0 (20220226.1711)
 -->
<!-- Pages: 1 -->
<svg width="902pt" height="332pt"
 viewBox="0.00 0.00 902.43 332.00" xmlns="http://www.w3.org/2000/svg" xmlns:xlink="http://www.w3.org/1999/xlink">
<g id="graph0" class="graph" transform="scale(1 1) rotate(0) translate(4 328)">
<polygon fill="white" stroke="transparent" points="-4,4 -4,-328 898.43,-328 898.43,4 -4,4"/>
<!-- [root] local_file.foo (expand) -->
<g id="node1" class="node">
<title>[root] local_file.foo (expand)</title>
<polygon fill="none" stroke="black" points="362.86,-180 273.86,-180 273.86,-144 362.86,-144 362.86,-180"/>
<text text-anchor="middle" x="318.36" y="-158.3" font-family="Times,serif" font-size="14.00">local_file.foo</text>
</g>
<!-- [root] provider[&quot;registry.terraform.io/hashicorp/local&quot;] -->
<g id="node2" class="node">
<title>[root] provider[&quot;registry.terraform.io/hashicorp/local&quot;]</title>
<polygon fill="none" stroke="black" points="257.36,-108 0.14,-90 257.36,-72 514.59,-90 257.36,-108"/>
<text text-anchor="middle" x="257.36" y="-86.3" font-family="Times,serif" font-size="14.00">provider[&quot;registry.terraform.io/hashicorp/local&quot;]</text>
</g>
<!-- [root] local_file.foo (expand)&#45;&gt;[root] provider[&quot;registry.terraform.io/hashicorp/local&quot;] -->
<g id="edge1" class="edge">
<title>[root] local_file.foo (expand)&#45;&gt;[root] provider[&quot;registry.terraform.io/hashicorp/local&quot;]</title>
<path fill="none" stroke="black" d="M303.29,-143.7C295.68,-134.97 286.33,-124.24 278.06,-114.75"/>
<polygon fill="black" stroke="black" points="280.64,-112.38 271.43,-107.14 275.36,-116.98 280.64,-112.38"/>
</g>
<!-- [root] random_pet.my_random_text (expand) -->
<g id="node4" class="node">
<title>[root] random_pet.my_random_text (expand)</title>
<polygon fill="none" stroke="black" points="711.86,-108 532.86,-108 532.86,-72 711.86,-72 711.86,-108"/>
<text text-anchor="middle" x="622.36" y="-86.3" font-family="Times,serif" font-size="14.00">random_pet.my_random_text</text>
</g>
<!-- [root] local_file.foo (expand)&#45;&gt;[root] random_pet.my_random_text (expand) -->
<g id="edge2" class="edge">
<title>[root] local_file.foo (expand)&#45;&gt;[root] random_pet.my_random_text (expand)</title>
<path fill="none" stroke="black" d="M363.06,-146.57C366.2,-145.66 369.32,-144.8 372.36,-144 421.54,-131.08 476.78,-119.11 522.81,-109.82"/>
<polygon fill="black" stroke="black" points="523.66,-113.22 532.78,-107.82 522.29,-106.36 523.66,-113.22"/>
</g>
<!-- [root] provider[&quot;registry.terraform.io/hashicorp/random&quot;] -->
<g id="node3" class="node">
<title>[root] provider[&quot;registry.terraform.io/hashicorp/random&quot;]</title>
<polygon fill="none" stroke="black" points="622.36,-36 350.22,-18 622.36,0 894.51,-18 622.36,-36"/>
<text text-anchor="middle" x="622.36" y="-14.3" font-family="Times,serif" font-size="14.00">provider[&quot;registry.terraform.io/hashicorp/random&quot;]</text>
</g>
<!-- [root] random_pet.my_random_text (expand)&#45;&gt;[root] provider[&quot;registry.terraform.io/hashicorp/random&quot;] -->
<g id="edge5" class="edge">
<title>[root] random_pet.my_random_text (expand)&#45;&gt;[root] provider[&quot;registry.terraform.io/hashicorp/random&quot;]</title>
<path fill="none" stroke="black" d="M622.36,-71.7C622.36,-63.98 622.36,-54.71 622.36,-46.11"/>
<polygon fill="black" stroke="black" points="625.86,-46.1 622.36,-36.1 618.86,-46.1 625.86,-46.1"/>
</g>
<!-- [root] provider[&quot;registry.terraform.io/hashicorp/local&quot;] (close) -->
<g id="node5" class="node">
<title>[root] provider[&quot;registry.terraform.io/hashicorp/local&quot;] (close)</title>
<ellipse fill="none" stroke="black" cx="340.36" cy="-234" rx="230.96" ry="18"/>
<text text-anchor="middle" x="340.36" y="-230.3" font-family="Times,serif" font-size="14.00">[root] provider[&quot;registry.terraform.io/hashicorp/local&quot;] (close)</text>
</g>
<!-- [root] provider[&quot;registry.terraform.io/hashicorp/local&quot;] (close)&#45;&gt;[root] local_file.foo (expand) -->
<g id="edge3" class="edge">
<title>[root] provider[&quot;registry.terraform.io/hashicorp/local&quot;] (close)&#45;&gt;[root] local_file.foo (expand)</title>
<path fill="none" stroke="black" d="M334.93,-215.7C332.47,-207.9 329.52,-198.51 326.8,-189.83"/>
<polygon fill="black" stroke="black" points="330.08,-188.59 323.74,-180.1 323.4,-190.69 330.08,-188.59"/>
</g>
<!-- [root] provider[&quot;registry.terraform.io/hashicorp/random&quot;] (close) -->
<g id="node6" class="node">
<title>[root] provider[&quot;registry.terraform.io/hashicorp/random&quot;] (close)</title>
<ellipse fill="none" stroke="black" cx="622.36" cy="-162" rx="241.26" ry="18"/>
<text text-anchor="middle" x="622.36" y="-158.3" font-family="Times,serif" font-size="14.00">[root] provider[&quot;registry.terraform.io/hashicorp/random&quot;] (close)</text>
</g>
<!-- [root] provider[&quot;registry.terraform.io/hashicorp/random&quot;] (close)&#45;&gt;[root] random_pet.my_random_text (expand) -->
<g id="edge4" class="edge">
<title>[root] provider[&quot;registry.terraform.io/hashicorp/random&quot;] (close)&#45;&gt;[root] random_pet.my_random_text (expand)</title>
<path fill="none" stroke="black" d="M622.36,-143.7C622.36,-135.98 622.36,-126.71 622.36,-118.11"/>
<polygon fill="black" stroke="black" points="625.86,-118.1 622.36,-108.1 618.86,-118.1 625.86,-118.1"/>
</g>
<!-- [root] root -->
<g id="node7" class="node">
<title>[root] root</title>
<ellipse fill="none" stroke="black" cx="469.36" cy="-306" rx="47.39" ry="18"/>
<text text-anchor="middle" x="469.36" y="-302.3" font-family="Times,serif" font-size="14.00">[root] root</text>
</g>
<!-- [root] root&#45;&gt;[root] provider[&quot;registry.terraform.io/hashicorp/local&quot;] (close) -->
<g id="edge6" class="edge">
<title>[root] root&#45;&gt;[root] provider[&quot;registry.terraform.io/hashicorp/local&quot;] (close)</title>
<path fill="none" stroke="black" d="M443.26,-290.83C425.17,-281.02 400.76,-267.77 380.25,-256.64"/>
<polygon fill="black" stroke="black" points="381.89,-253.55 371.43,-251.86 378.55,-259.7 381.89,-253.55"/>
</g>
<!-- [root] root&#45;&gt;[root] provider[&quot;registry.terraform.io/hashicorp/random&quot;] (close) -->
<g id="edge7" class="edge">
<title>[root] root&#45;&gt;[root] provider[&quot;registry.terraform.io/hashicorp/random&quot;] (close)</title>
<path fill="none" stroke="black" d="M506.16,-294.55C529.83,-286.25 559.87,-272.58 580.36,-252 597.53,-234.76 608.59,-209.16 615.03,-189.83"/>
<polygon fill="black" stroke="black" points="618.43,-190.7 618.07,-180.11 611.75,-188.61 618.43,-190.7"/>
</g>
</g>
</svg>
